<?xml version="1.0" encoding="UTF-8"?>
<svg xmlns="http://www.w3.org/2000/svg" xmlns:xlink="http://www.w3.org/1999/xlink" width="30pt" height="30.000001pt" viewBox="0 0 30 30.000001" version="1.2">
<defs>
<clipPath id="clip1">
  <path d="M 1.933594 1.453125 L 28.066406 1.453125 L 28.066406 27.582031 L 1.933594 27.582031 Z M 1.933594 1.453125 "/>
</clipPath>
</defs>
<g id="surface1">
<g clip-path="url(#clip1)" clip-rule="nonzero">
<path style=" stroke:none;fill-rule:evenodd;fill:rgb(0%,0%,0%);fill-opacity:1;" d="M 15 1.722656 C 7.785156 1.722656 1.933594 7.574219 1.933594 14.789062 C 1.933594 20.5625 5.679688 25.457031 10.871094 27.183594 C 11.523438 27.304688 11.761719 26.902344 11.761719 26.554688 C 11.761719 26.246094 11.75 25.425781 11.746094 24.335938 C 8.109375 25.125 7.34375 22.582031 7.34375 22.582031 C 6.75 21.074219 5.894531 20.671875 5.894531 20.671875 C 4.707031 19.859375 5.984375 19.878906 5.984375 19.878906 C 7.292969 19.96875 7.984375 21.226562 7.984375 21.226562 C 9.148438 23.222656 11.042969 22.644531 11.785156 22.308594 C 11.90625 21.464844 12.242188 20.890625 12.617188 20.5625 C 9.714844 20.234375 6.664062 19.113281 6.664062 14.105469 C 6.664062 12.679688 7.175781 11.515625 8.007812 10.601562 C 7.875 10.269531 7.425781 8.941406 8.136719 7.144531 C 8.136719 7.144531 9.234375 6.792969 11.730469 8.484375 C 12.773438 8.191406 13.890625 8.046875 15 8.042969 C 16.109375 8.046875 17.230469 8.191406 18.273438 8.484375 C 20.765625 6.792969 21.859375 7.144531 21.859375 7.144531 C 22.574219 8.941406 22.125 10.269531 21.992188 10.601562 C 22.828125 11.515625 23.332031 12.679688 23.332031 14.105469 C 23.332031 19.125 20.277344 20.230469 17.367188 20.554688 C 17.835938 20.957031 18.253906 21.753906 18.253906 22.972656 C 18.253906 24.71875 18.238281 26.128906 18.238281 26.554688 C 18.238281 26.90625 18.472656 27.3125 19.136719 27.183594 C 24.324219 25.453125 28.066406 20.558594 28.066406 14.789062 C 28.066406 7.574219 22.214844 1.722656 15 1.722656 Z M 15 1.722656 "/>
</g>
</g>
</svg>
