<?xml version="1.0" encoding="UTF-8"?>
<svg xmlns="http://www.w3.org/2000/svg" xmlns:xlink="http://www.w3.org/1999/xlink" width="30pt" height="30.000001pt" viewBox="0 0 30 30.000001" version="1.2">
<defs>
<clipPath id="clip1">
  <path d="M 0.484375 0 L 29.515625 0 L 29.515625 29.03125 L 0.484375 29.03125 Z M 0.484375 0 "/>
</clipPath>
<clipPath id="clip2">
  <path d="M 1.933594 1.453125 L 28.066406 1.453125 L 28.066406 27.582031 L 1.933594 27.582031 Z M 1.933594 1.453125 "/>
</clipPath>
</defs>
<g id="surface1">
<g clip-path="url(#clip1)" clip-rule="nonzero">
<path style=" stroke:none;fill-rule:nonzero;fill:rgb(100%,100%,100%);fill-opacity:1;" d="M 0.484375 0 L 29.515625 0 L 29.515625 36.289062 L 0.484375 36.289062 Z M 0.484375 0 "/>
<path style=" stroke:none;fill-rule:nonzero;fill:rgb(100%,100%,100%);fill-opacity:1;" d="M 0.484375 0 L 29.515625 0 L 29.515625 29.03125 L 0.484375 29.03125 Z M 0.484375 0 "/>
<path style=" stroke:none;fill-rule:nonzero;fill:rgb(100%,100%,100%);fill-opacity:1;" d="M 0.484375 0 L 29.515625 0 L 29.515625 29.03125 L 0.484375 29.03125 Z M 0.484375 0 "/>
</g>
<g clip-path="url(#clip2)" clip-rule="nonzero">
<path style=" stroke:none;fill-rule:nonzero;fill:rgb(0%,0%,0%);fill-opacity:1;" d="M 15 1.667969 C 7.785156 1.667969 1.933594 7.519531 1.933594 14.734375 C 1.933594 20.855469 6.152344 25.976562 11.835938 27.394531 C 11.773438 27.21875 11.734375 27.015625 11.734375 26.761719 L 11.734375 24.527344 C 11.203125 24.527344 10.316406 24.527344 10.09375 24.527344 C 9.199219 24.527344 8.402344 24.144531 8.019531 23.429688 C 7.589844 22.636719 7.515625 21.421875 6.457031 20.679688 C 6.140625 20.433594 6.378906 20.148438 6.742188 20.1875 C 7.414062 20.378906 7.96875 20.835938 8.492188 21.519531 C 9.011719 22.203125 9.257812 22.355469 10.226562 22.355469 C 10.699219 22.355469 11.40625 22.328125 12.070312 22.222656 C 12.425781 21.316406 13.042969 20.480469 13.796875 20.089844 C 9.449219 19.640625 7.371094 17.476562 7.371094 14.539062 C 7.371094 13.273438 7.910156 12.050781 8.824219 11.019531 C 8.527344 9.996094 8.148438 7.90625 8.941406 7.113281 C 10.898438 7.113281 12.082031 8.382812 12.367188 8.726562 C 13.34375 8.390625 14.414062 8.203125 15.539062 8.203125 C 16.667969 8.203125 17.742188 8.390625 18.71875 8.726562 C 19 8.386719 20.183594 7.113281 22.148438 7.113281 C 22.945312 7.910156 22.5625 10.003906 22.257812 11.027344 C 23.167969 12.054688 23.703125 13.273438 23.703125 14.539062 C 23.703125 17.472656 21.632812 19.636719 17.289062 20.085938 C 18.484375 20.710938 19.355469 22.464844 19.355469 23.785156 L 19.355469 26.761719 C 19.355469 26.875 19.328125 26.957031 19.316406 27.050781 C 24.40625 25.269531 28.066406 20.433594 28.066406 14.734375 C 28.066406 7.519531 22.214844 1.667969 15 1.667969 Z M 15 1.667969 "/>
</g>
</g>
</svg>
