<?xml version="1.0" encoding="UTF-8"?>
<svg xmlns="http://www.w3.org/2000/svg" xmlns:xlink="http://www.w3.org/1999/xlink" width="30pt" height="30.000001pt" viewBox="0 0 30 30.000001" version="1.2">
<defs>
<clipPath id="clip1">
  <path d="M 0.484375 0 L 29.515625 0 L 29.515625 29.03125 L 0.484375 29.03125 Z M 0.484375 0 "/>
</clipPath>
<clipPath id="clip2">
  <path d="M 1.933594 1.453125 L 28.066406 1.453125 L 28.066406 27.582031 L 1.933594 27.582031 Z M 1.933594 1.453125 "/>
</clipPath>
</defs>
<g id="surface1">
<g clip-path="url(#clip1)" clip-rule="nonzero">
<path style=" stroke:none;fill-rule:nonzero;fill:rgb(100%,100%,100%);fill-opacity:1;" d="M 0.484375 0 L 29.515625 0 L 29.515625 36.289062 L 0.484375 36.289062 Z M 0.484375 0 "/>
<path style=" stroke:none;fill-rule:nonzero;fill:rgb(100%,100%,100%);fill-opacity:1;" d="M 0.484375 0 L 29.515625 0 L 29.515625 29.03125 L 0.484375 29.03125 Z M 0.484375 0 "/>
<path style=" stroke:none;fill-rule:nonzero;fill:rgb(100%,100%,100%);fill-opacity:1;" d="M 0.484375 0 L 29.515625 0 L 29.515625 29.03125 L 0.484375 29.03125 Z M 0.484375 0 "/>
</g>
<g clip-path="url(#clip2)" clip-rule="nonzero">
<path style=" stroke:none;fill-rule:nonzero;fill:rgb(0%,0%,0%);fill-opacity:1;" d="M 15 1.453125 C 7.785156 1.453125 1.933594 7.300781 1.933594 14.515625 C 1.933594 21.730469 7.785156 27.582031 15 27.582031 C 22.214844 27.582031 28.066406 21.730469 28.066406 14.515625 C 28.066406 7.300781 22.214844 1.453125 15 1.453125 Z M 10.097656 7.332031 C 11.011719 7.332031 11.625 7.945312 11.625 8.757812 C 11.625 9.574219 11.011719 10.183594 9.996094 10.183594 C 9.078125 10.183594 8.46875 9.574219 8.46875 8.757812 C 8.46875 7.945312 9.078125 7.332031 10.097656 7.332031 Z M 11.734375 19.960938 L 8.46875 19.960938 L 8.46875 11.25 L 11.734375 11.25 Z M 22.621094 19.960938 L 19.546875 19.960938 L 19.546875 15.199219 C 19.546875 13.882812 18.726562 13.578125 18.417969 13.578125 C 18.113281 13.578125 17.085938 13.78125 17.085938 15.199219 C 17.085938 15.402344 17.085938 19.960938 17.085938 19.960938 L 13.910156 19.960938 L 13.910156 11.25 L 17.089844 11.25 L 17.089844 12.464844 C 17.496094 11.757812 18.316406 11.25 19.855469 11.25 C 21.390625 11.25 22.621094 12.464844 22.621094 15.199219 Z M 22.621094 19.960938 "/>
</g>
</g>
</svg>
