<?xml version="1.0" encoding="UTF-8"?>
<svg xmlns="http://www.w3.org/2000/svg" xmlns:xlink="http://www.w3.org/1999/xlink" width="75pt" height="74.999997pt" viewBox="0 0 75 74.999997" version="1.2">
<defs>
<clipPath id="clip1">
  <path d="M 6 32 L 70.289062 32 L 70.289062 51.75 L 6 51.75 Z M 6 32 "/>
</clipPath>
</defs>
<g id="surface1">
<g clip-path="url(#clip1)" clip-rule="nonzero">
<path style=" stroke:none;fill-rule:nonzero;fill:rgb(0%,0%,0%);fill-opacity:1;" d="M 38.460938 51.488281 C 38.230469 51.488281 38.003906 51.429688 37.796875 51.316406 L 7.160156 34.699219 C 6.484375 34.335938 6.234375 33.496094 6.605469 32.820312 C 6.972656 32.152344 7.824219 31.902344 8.492188 32.265625 L 38.460938 48.523438 L 68.433594 32.265625 C 69.109375 31.902344 69.957031 32.152344 70.324219 32.820312 C 70.691406 33.496094 70.445312 34.332031 69.769531 34.699219 L 39.132812 51.316406 C 38.921875 51.429688 38.695312 51.488281 38.460938 51.488281 Z M 38.460938 51.488281 "/>
</g>
</g>
</svg>
